# xmcd
#
# Track frame offsets:
#	150
#	14098
#	33323
#	50446
#	67303
#	92309
#
# Disc length: 1600 seconds
#
# Revision: 0
# Processed by: cddbd v1.4PL0 Copyright (c) Steve Scherf et al.
# Submitted via: dBpowerAMP V4.0
#
DISCID=4b063e06
DTITLE=Cross Road Blues - Demo 
DYEAR=2003
DGENRE=Blues
TTITLE0=Have You Ever Seen The Rain
TTITLE1=All Your Love
TTITLE2=Pride and Joy
TTITLE3=I Ain't Got You
TTITLE4=Hoochie Coochie Man
TTITLE5=Ridin On The L&N
EXTD=
EXTT0=
EXTT1=
EXTT2=
EXTT3=
EXTT4=
EXTT5=
PLAYORDER=
